<svg width="53" height="54" viewBox="0 0 53 54" fill="none" xmlns="http://www.w3.org/2000/svg">
<path d="M0 26.2924C0 11.7715 11.7715 0 26.2924 0C40.8133 0 52.5848 11.7715 52.5848 26.2924V27.4112C52.5848 41.9321 40.8133 53.7037 26.2924 53.7037C11.7715 53.7037 0 41.9321 0 27.4112V26.2924Z" fill="#0068E5"/>
<path d="M31.2464 37.1632C29.8763 36.2193 29.5433 34.3615 30.5027 33.0135L38.1458 22.2744C39.1051 20.9264 40.9936 20.5988 42.3637 21.5427C43.7338 22.4865 44.0667 24.3444 43.1074 25.6924L35.4643 36.4315C34.5049 37.7795 32.6165 38.1071 31.2464 37.1632Z" fill="#E8F2FE"/>
<path d="M21.2299 34.5989C19.8598 33.655 19.5268 31.7971 20.4861 30.4492L28.1293 19.7101C29.0886 18.3621 30.977 18.0345 32.3471 18.9784C33.7173 19.9222 34.0502 21.7801 33.0909 23.1281L25.4477 33.8672C24.4884 35.2151 22.6 35.5427 21.2299 34.5989Z" fill="#E8F2FE"/>
<path d="M11.2134 32.0342C9.84325 31.0904 9.51027 29.2325 10.4696 27.8845L18.1128 17.1454C19.0721 15.7975 20.9605 15.4699 22.3306 16.4137C23.7007 17.3576 24.0337 19.2155 23.0744 20.5634L15.4312 31.3025C14.4719 32.6505 12.5835 32.9781 11.2134 32.0342Z" fill="#E8F2FE"/>
</svg>
